# xmcd
# Track frame offsets:
# 150
# 17496
# 40742
# 59622
# 78396
# 100431
#
# Disc length: 1632 seconds
# Revision: 0
# Processed by: cddbd v1.5.2PL0 Copyright (c) Steve Scherf et al.
# Submitted via: VisiTrax 2.10.3.257 - For more info visit www.synapsa.com
#
DISCID=44065e06
DTITLE=Jeannie Holliday - Hate 'N On Me
DYEAR=1900
DGENRE=
TTITLE0=Games Are Over
TTITLE1=Baby U Baby
TTITLE2=Now Is The Time
TTITLE3=Hate "N On Me
TTITLE4=Color Of My Heart
TTITLE5=Just Don't Like You That Way
EXTD=
EXTT0=
EXTT1=
EXTT2=
EXTT3=
EXTT4=
EXTT5=
PLAYORDER=
